<mxfile host="app.diagrams.net" agent="Mozilla/5.0 (Windows NT 10.0; Win64; x64) AppleWebKit/537.36 (KHTML, like Gecko) Chrome/129.0.0.0 Safari/537.36" version="24.7.16">
  <diagram name="Page-1" id="_Ql6KUWh7la7L2Fc4lH7">
    <mxGraphModel dx="2524" dy="858" grid="1" gridSize="10" guides="1" tooltips="1" connect="1" arrows="1" fold="1" page="1" pageScale="1" pageWidth="850" pageHeight="1100" math="0" shadow="0">
      <root>
        <mxCell id="0" />
        <mxCell id="1" parent="0" />
        <mxCell id="iMG2PyaKOdJ9V3Aqfi0n-6" style="edgeStyle=orthogonalEdgeStyle;rounded=0;orthogonalLoop=1;jettySize=auto;html=1;" parent="1" source="iMG2PyaKOdJ9V3Aqfi0n-2" target="iMG2PyaKOdJ9V3Aqfi0n-5" edge="1">
          <mxGeometry relative="1" as="geometry" />
        </mxCell>
        <mxCell id="iMG2PyaKOdJ9V3Aqfi0n-2" value="ERP" style="strokeWidth=2;html=1;shape=mxgraph.lean_mapping.mrp_erp;whiteSpace=wrap;" parent="1" vertex="1">
          <mxGeometry x="490" y="310" width="70" height="100" as="geometry" />
        </mxCell>
        <mxCell id="iMG2PyaKOdJ9V3Aqfi0n-3" value="MessageBox" style="whiteSpace=wrap;html=1;aspect=fixed;" parent="1" vertex="1">
          <mxGeometry x="200" y="320" width="80" height="80" as="geometry" />
        </mxCell>
        <mxCell id="iMG2PyaKOdJ9V3Aqfi0n-4" style="edgeStyle=orthogonalEdgeStyle;rounded=0;orthogonalLoop=1;jettySize=auto;html=1;entryX=0;entryY=0.5;entryDx=0;entryDy=0;entryPerimeter=0;" parent="1" source="iMG2PyaKOdJ9V3Aqfi0n-3" target="iMG2PyaKOdJ9V3Aqfi0n-2" edge="1">
          <mxGeometry relative="1" as="geometry" />
        </mxCell>
        <mxCell id="iMG2PyaKOdJ9V3Aqfi0n-8" style="edgeStyle=orthogonalEdgeStyle;rounded=0;orthogonalLoop=1;jettySize=auto;html=1;entryX=0;entryY=0.5;entryDx=0;entryDy=0;" parent="1" source="iMG2PyaKOdJ9V3Aqfi0n-5" target="iMG2PyaKOdJ9V3Aqfi0n-7" edge="1">
          <mxGeometry relative="1" as="geometry" />
        </mxCell>
        <mxCell id="iMG2PyaKOdJ9V3Aqfi0n-5" value="Event&lt;div&gt;D365&lt;/div&gt;" style="rounded=0;whiteSpace=wrap;html=1;" parent="1" vertex="1">
          <mxGeometry x="630" y="330" width="120" height="60" as="geometry" />
        </mxCell>
        <mxCell id="iMG2PyaKOdJ9V3Aqfi0n-10" style="edgeStyle=orthogonalEdgeStyle;rounded=0;orthogonalLoop=1;jettySize=auto;html=1;entryX=0;entryY=0.5;entryDx=0;entryDy=0;" parent="1" source="iMG2PyaKOdJ9V3Aqfi0n-7" target="iMG2PyaKOdJ9V3Aqfi0n-9" edge="1">
          <mxGeometry relative="1" as="geometry" />
        </mxCell>
        <mxCell id="iMG2PyaKOdJ9V3Aqfi0n-7" value="Stored&lt;div&gt;Procedures&lt;/div&gt;" style="shape=datastore;whiteSpace=wrap;html=1;" parent="1" vertex="1">
          <mxGeometry x="820" y="325" width="80" height="70" as="geometry" />
        </mxCell>
        <mxCell id="iMG2PyaKOdJ9V3Aqfi0n-9" value="Event&lt;div&gt;BizTalk&lt;/div&gt;" style="rounded=0;whiteSpace=wrap;html=1;" parent="1" vertex="1">
          <mxGeometry x="960" y="330" width="120" height="60" as="geometry" />
        </mxCell>
        <mxCell id="iMG2PyaKOdJ9V3Aqfi0n-13" value="Currently custom vehicle modules, but the modules might be migrated to IVS module?" style="text;html=1;align=center;verticalAlign=middle;whiteSpace=wrap;rounded=0;" parent="1" vertex="1">
          <mxGeometry x="472.5" y="450" width="105" height="30" as="geometry" />
        </mxCell>
        <mxCell id="iMG2PyaKOdJ9V3Aqfi0n-14" style="edgeStyle=orthogonalEdgeStyle;rounded=0;orthogonalLoop=1;jettySize=auto;html=1;entryX=0.5;entryY=0;entryDx=0;entryDy=0;entryPerimeter=0;" parent="1" source="iMG2PyaKOdJ9V3Aqfi0n-9" target="iMG2PyaKOdJ9V3Aqfi0n-2" edge="1">
          <mxGeometry relative="1" as="geometry">
            <Array as="points">
              <mxPoint x="1020" y="290" />
              <mxPoint x="525" y="290" />
            </Array>
          </mxGeometry>
        </mxCell>
        <mxCell id="qWDML8DLxtR0hBVDkOOY-1" value="VehicleData&lt;div&gt;ShippingNotification&lt;/div&gt;&lt;div&gt;Call-off&lt;/div&gt;" style="text;html=1;align=center;verticalAlign=middle;resizable=0;points=[];autosize=1;strokeColor=none;fillColor=none;" vertex="1" parent="1">
          <mxGeometry x="310" y="300" width="130" height="60" as="geometry" />
        </mxCell>
        <mxCell id="qWDML8DLxtR0hBVDkOOY-5" value="" style="edgeStyle=orthogonalEdgeStyle;rounded=0;orthogonalLoop=1;jettySize=auto;html=1;" edge="1" parent="1" source="qWDML8DLxtR0hBVDkOOY-3" target="qWDML8DLxtR0hBVDkOOY-4">
          <mxGeometry relative="1" as="geometry" />
        </mxCell>
        <mxCell id="qWDML8DLxtR0hBVDkOOY-3" value="ExcelSpreadsheet&lt;div&gt;File&lt;/div&gt;&lt;div&gt;Azure SB&lt;br&gt;SQL&lt;/div&gt;" style="text;html=1;align=center;verticalAlign=middle;resizable=0;points=[];autosize=1;strokeColor=none;fillColor=none;" vertex="1" parent="1">
          <mxGeometry x="-320" y="325" width="120" height="70" as="geometry" />
        </mxCell>
        <mxCell id="qWDML8DLxtR0hBVDkOOY-6" style="edgeStyle=orthogonalEdgeStyle;rounded=0;orthogonalLoop=1;jettySize=auto;html=1;entryX=0;entryY=0.5;entryDx=0;entryDy=0;" edge="1" parent="1" source="qWDML8DLxtR0hBVDkOOY-4" target="iMG2PyaKOdJ9V3Aqfi0n-3">
          <mxGeometry relative="1" as="geometry" />
        </mxCell>
        <mxCell id="qWDML8DLxtR0hBVDkOOY-10" style="edgeStyle=orthogonalEdgeStyle;rounded=0;orthogonalLoop=1;jettySize=auto;html=1;exitX=0.5;exitY=0;exitDx=0;exitDy=0;entryX=0;entryY=0.5;entryDx=0;entryDy=0;" edge="1" parent="1" source="qWDML8DLxtR0hBVDkOOY-4" target="qWDML8DLxtR0hBVDkOOY-8">
          <mxGeometry relative="1" as="geometry">
            <mxPoint x="285" y="190" as="targetPoint" />
          </mxGeometry>
        </mxCell>
        <mxCell id="qWDML8DLxtR0hBVDkOOY-4" value="BizTalk" style="rounded=0;whiteSpace=wrap;html=1;" vertex="1" parent="1">
          <mxGeometry x="-120" y="330" width="120" height="60" as="geometry" />
        </mxCell>
        <mxCell id="qWDML8DLxtR0hBVDkOOY-8" value="TMS" style="whiteSpace=wrap;html=1;aspect=fixed;" vertex="1" parent="1">
          <mxGeometry x="200" y="160" width="80" height="80" as="geometry" />
        </mxCell>
        <mxCell id="qWDML8DLxtR0hBVDkOOY-13" value="Windows Services" style="text;html=1;align=center;verticalAlign=middle;resizable=0;points=[];autosize=1;strokeColor=none;fillColor=none;" vertex="1" parent="1">
          <mxGeometry x="315" y="365" width="120" height="30" as="geometry" />
        </mxCell>
        <mxCell id="qWDML8DLxtR0hBVDkOOY-15" value="Custom vehicle model" style="text;html=1;align=center;verticalAlign=middle;resizable=0;points=[];autosize=1;strokeColor=none;fillColor=none;" vertex="1" parent="1">
          <mxGeometry x="30" y="315" width="140" height="30" as="geometry" />
        </mxCell>
      </root>
    </mxGraphModel>
  </diagram>
</mxfile>
